<?xml version="1.0" encoding="UTF-8"?>
<svg width="346.67" height="224" version="1.1" viewBox="0 0 91.722 59.267" xmlns="http://www.w3.org/2000/svg" xmlns:cc="http://creativecommons.org/ns#" xmlns:dc="http://purl.org/dc/elements/1.1/" xmlns:rdf="http://www.w3.org/1999/02/22-rdf-syntax-ns#" xmlns:xlink="http://www.w3.org/1999/xlink">
 <defs>
  <marker id="c" overflow="visible" orient="auto">
   <path transform="scale(.4) rotate(180) translate(10)" d="m0 0 5-5-17.5 5 17.5 5-5-5z" fill-rule="evenodd" stroke="#000" stroke-width="1pt"/>
  </marker>
  <marker id="d" overflow="visible" orient="auto">
   <path transform="scale(.4) rotate(180) translate(10)" d="m0 0 5-5-17.5 5 17.5 5-5-5z" fill-rule="evenodd" stroke="#000" stroke-width="1pt"/>
  </marker>
  <marker id="e" overflow="visible" orient="auto">
   <path transform="scale(.4) rotate(180) translate(10)" d="m0 0 5-5-17.5 5 17.5 5-5-5z" fill-rule="evenodd" stroke="#000" stroke-width="1pt"/>
  </marker>
  <marker id="f" overflow="visible" orient="auto">
   <path transform="scale(.4) rotate(180) translate(10)" d="m0 0 5-5-17.5 5 17.5 5-5-5z" fill-rule="evenodd" stroke="#000" stroke-width="1pt"/>
  </marker>
  <marker id="g" overflow="visible" orient="auto">
   <path transform="scale(.4) rotate(180) translate(10)" d="m0 0 5-5-17.5 5 17.5 5-5-5z" fill-rule="evenodd" stroke="#000" stroke-width="1pt"/>
  </marker>
  <marker id="h" overflow="visible" orient="auto">
   <path transform="scale(.4) rotate(180) translate(10)" d="m0 0 5-5-17.5 5 17.5 5-5-5z" fill-rule="evenodd" stroke="#000" stroke-width="1pt"/>
  </marker>
  <path id="s" d="m7.5318-5.7584c0.099626-0.39851 0.27895-0.70735 1.076-0.73724 0.049813 0 0.16936-0.009963 0.16936-0.19925 0-0.009963 0-0.10959-0.12951-0.10959-0.32877 0-0.67746 0.029888-1.0062 0.029888-0.33873 0-0.68742-0.029888-1.0162-0.029888-0.059776 0-0.17933 0-0.17933 0.19925 0 0.10959 0.099627 0.10959 0.17933 0.10959 0.56787 0.009962 0.67746 0.21918 0.67746 0.43836 0 0.029888-0.019925 0.17933-0.029888 0.20922l-1.1158 4.4334-2.2017-5.2005c-0.079701-0.17933-0.089664-0.18929-0.3188-0.18929h-1.335c-0.19925 0-0.28892 0-0.28892 0.19925 0 0.10959 0.089664 0.10959 0.27895 0.10959 0.049813 0 0.67746 0 0.67746 0.089663l-1.335 5.3499c-0.099626 0.39851-0.26899 0.71731-1.076 0.7472-0.059776 0-0.16936 0.009963-0.16936 0.19925 0 0.069738 0.049813 0.10959 0.12951 0.10959 0.3188 0 0.6675-0.029888 0.99626-0.029888 0.33873 0 0.69738 0.029888 1.0262 0.029888 0.049813 0 0.17933 0 0.17933-0.19925 0-0.099626-0.089664-0.10959-0.19925-0.10959-0.57783-0.019925-0.65753-0.2391-0.65753-0.43836 0-0.069738 0.009962-0.11955 0.03985-0.22914l1.3151-5.2603c0.03985 0.059776 0.03985 0.079701 0.089664 0.17933l2.4807 5.868c0.069738 0.16936 0.099626 0.18929 0.18929 0.18929 0.10959 0 0.10959-0.029888 0.1594-0.20922l1.3948-5.5492z"/>
  <path id="r" d="m3.7161-3.7659c-0.17933-0.36862-0.46824-0.63761-0.91656-0.63761-1.1656 0-2.401 1.4645-2.401 2.9191 0 0.93649 0.54794 1.594 1.325 1.594 0.19925 0 0.69738-0.039851 1.2951-0.7472 0.079701 0.41843 0.42839 0.7472 0.9066 0.7472 0.34869 0 0.57783-0.22914 0.73724-0.54794 0.16936-0.35866 0.29888-0.96638 0.29888-0.9863 0-0.099626-0.089664-0.099626-0.11955-0.099626-0.099626 0-0.10959 0.039851-0.13948 0.17933-0.16936 0.64757-0.34869 1.2354-0.75716 1.2354-0.26899 0-0.29888-0.25903-0.29888-0.45828 0-0.21918 0.019926-0.29888 0.12952-0.73724 0.10959-0.41843 0.12951-0.51806 0.21918-0.89664l0.35866-1.3948c0.069738-0.27895 0.069738-0.29888 0.069738-0.33873 0-0.16936-0.11955-0.26899-0.28892-0.26899-0.2391 0-0.38854 0.21918-0.41843 0.43836zm-0.64757 2.5803c-0.049813 0.17933-0.049813 0.19925-0.19925 0.36862-0.43836 0.54794-0.84682 0.70735-1.1258 0.70735-0.49813 0-0.63761-0.54794-0.63761-0.93649 0-0.49813 0.3188-1.7235 0.54794-2.1818 0.30884-0.5878 0.75716-0.95641 1.1557-0.95641 0.64757 0 0.78705 0.81694 0.78705 0.87671s-0.019925 0.11955-0.029888 0.16936l-0.49813 1.9527z"/>
  <path id="u" d="m6.5654-2.2914c0.16936 0 0.34869 0 0.34869-0.19925s-0.17933-0.19925-0.34869-0.19925h-5.3898c-0.16936 0-0.34869 0-0.34869 0.19925s0.17933 0.19925 0.34869 0.19925h5.3898z"/>
  <path id="k" d="m12.613 13.948 1.2055-3.188h-0.24907c-0.38854 1.0361-1.4446 1.7136-2.5903 2.0125-0.20922 0.049813-1.1856 0.30884-3.0984 0.30884h-6.0075l5.071-5.9477c0.069739-0.079701 0.089664-0.10959 0.089664-0.1594 0-0.019925 0-0.049813-0.069739-0.14944l-4.6426-6.3462h5.4595c1.335 0 2.2416 0.13948 2.3313 0.1594 0.53798 0.079701 1.4047 0.24907 2.1918 0.7472 0.24907 0.1594 0.92652 0.60772 1.2653 1.4147h0.24907l-1.2055-2.7995h-11.776c-0.22914 0-0.2391 0.009963-0.26899 0.069738-0.009962 0.029888-0.009962 0.21918-0.009962 0.32877l5.2702 7.213-5.1606 6.0473c-0.099627 0.11955-0.099627 0.16936-0.099627 0.17933 0 0.10959 0.089664 0.10959 0.26899 0.10959h11.776z"/>
  <path id="q" d="m3.2976 2.391c0-0.029888 0-0.049814-0.16936-0.21918-1.2453-1.2553-1.5641-3.1382-1.5641-4.6625 0-1.7335 0.37858-3.467 1.604-4.7123 0.12951-0.11955 0.12951-0.13948 0.12951-0.16936 0-0.069738-0.039851-0.099626-0.099627-0.099626-0.099626 0-0.99626 0.67746-1.5841 1.9427-0.5081 1.0959-0.62765 2.2017-0.62765 3.0386 0 0.77709 0.10959 1.9826 0.65754 3.1083 0.59776 1.2254 1.4545 1.873 1.5542 1.873 0.059776 0 0.099627-0.029888 0.099627-0.099626z"/>
  <path id="p" d="m2.8792-2.4907c0-0.77709-0.10959-1.9826-0.65753-3.1083-0.59776-1.2254-1.4545-1.873-1.5542-1.873-0.059776 0-0.099627 0.03985-0.099627 0.099626 0 0.029888 0 0.049814 0.18929 0.22914 0.97634 0.9863 1.5442 2.5704 1.5442 4.6526 0 1.7036-0.36862 3.457-1.604 4.7123-0.12952 0.11955-0.12952 0.13948-0.12952 0.16936 0 0.059775 0.039851 0.099626 0.099627 0.099626 0.099626 0 0.99626-0.67746 1.5841-1.9427 0.50809-1.0959 0.62765-2.2017 0.62765-3.0386z"/>
  <path id="o" d="m1.2653-0.76712 1.056-1.0262c1.5542-1.3748 2.1519-1.9128 2.1519-2.9091 0-1.1357-0.89664-1.9328-2.1121-1.9328-1.1258 0-1.863 0.91656-1.863 1.8032 0 0.55791 0.49813 0.55791 0.52802 0.55791 0.16936 0 0.51806-0.11955 0.51806-0.52802 0-0.25903-0.17933-0.51806-0.52802-0.51806-0.079701 0-0.099626 0-0.12951 0.009963 0.22914-0.64757 0.76712-1.0162 1.345-1.0162 0.9066 0 1.335 0.80697 1.335 1.6239 0 0.79701-0.49813 1.5841-1.0461 2.2017l-1.9128 2.132c-0.10959 0.10959-0.10959 0.12952-0.10959 0.36862h3.6961l0.27895-1.7335h-0.24907c-0.049813 0.29888-0.11955 0.73724-0.21918 0.88668-0.069738 0.079701-0.72727 0.079701-0.94645 0.079701h-1.7933z"/>
  <path id="n" d="m6.8443-3.2578c0.14944 0 0.33873 0 0.33873-0.19925s-0.18929-0.19925-0.32877-0.19925h-5.9676c-0.13948 0-0.32877 0-0.32877 0.19925s0.18929 0.19925 0.33873 0.19925h5.9477zm0.009962 1.9328c0.13948 0 0.32877 0 0.32877-0.19925s-0.18929-0.19925-0.33873-0.19925h-5.9477c-0.14944 0-0.33873 0-0.33873 0.19925s0.18929 0.19925 0.32877 0.19925h5.9676z"/>
  <path id="t" d="m4.0309-1.9108c-0.36961-0.43238-0.4812-0.55093-0.7462-0.73923-0.4254-0.30685-0.87173-0.4254-1.2553-0.4254-0.86476 0-1.4924 0.73923-1.4924 1.5761 0 0.81594 0.59975 1.5691 1.4715 1.5691 0.96936 0 1.6458-0.79502 1.8969-1.1646 0.36961 0.43238 0.4812 0.55093 0.7462 0.73923 0.4254 0.30685 0.87173 0.4254 1.2553 0.4254 0.86476 0 1.4924-0.73923 1.4924-1.5761 0-0.81594-0.59975-1.5691-1.4715-1.5691-0.96936 0-1.6458 0.79502-1.8969 1.1646zm0.22316 0.25803c0.27895-0.4533 0.88568-1.1577 1.7365-1.1577 0.71831 0 1.2134 0.63462 1.2134 1.3041s-0.54396 1.1925-1.1856 1.1925c-0.64857 0-1.0949-0.53001-1.7644-1.339zm-0.57186 0.29988c-0.27895 0.4533-0.88568 1.1577-1.7365 1.1577-0.71831 0-1.2134-0.63462-1.2134-1.3041s0.54396-1.1925 1.1856-1.1925c0.64857 0 1.0949 0.53001 1.7644 1.339z"/>
  <path id="a" d="m2.2595-4.3587c0-0.11158-0.083686-0.26501-0.27895-0.26501-0.18829 0-0.39054 0.18132-0.39054 0.38356 0 0.11856 0.09066 0.26501 0.27895 0.26501 0.20224 0 0.39054-0.19527 0.39054-0.38356zm-1.4227 3.5427c-0.027896 0.09066-0.062765 0.17435-0.062765 0.2929 0 0.32777 0.27895 0.59278 0.66252 0.59278 0.69738 0 1.0042-0.96239 1.0042-1.067 0-0.09066-0.09066-0.09066-0.11158-0.09066-0.097634 0-0.10461 0.041843-0.1325 0.11856-0.1604 0.55791-0.46725 0.84384-0.73923 0.84384-0.13948 0-0.17435-0.09066-0.17435-0.24408 0-0.1604 0.048817-0.2929 0.11158-0.44633 0.069738-0.18829 0.14645-0.37659 0.22316-0.55791 0.062764-0.16737 0.31382-0.80199 0.34172-0.88568 0.020922-0.069738 0.041843-0.15342 0.041843-0.22316 0-0.32777-0.27895-0.59278-0.66252-0.59278-0.69041 0-1.0112 0.94844-1.0112 1.067 0 0.09066 0.097634 0.09066 0.11856 0.09066 0.097634 0 0.10461-0.034869 0.12553-0.11158 0.18132-0.59975 0.48817-0.85081 0.7462-0.85081 0.11158 0 0.17435 0.055791 0.17435 0.24408 0 0.1604-0.041843 0.26501-0.21619 0.69738l-0.43935 1.1228z"/>
  <path id="m" d="m3.5985-2.2247c0-0.76712-0.09066-1.3181-0.41146-1.8062-0.21619-0.3208-0.64857-0.59975-1.2065-0.59975-1.6179 0-1.6179 1.9039-1.6179 2.406s0 2.3641 1.6179 2.3641 1.6179-1.862 1.6179-2.3641zm-1.6179 2.1689c-0.3208 0-0.7462-0.18829-0.88568-0.76015-0.097634-0.41146-0.097634-0.98331-0.097634-1.4994 0-0.50909 0-1.0391 0.10461-1.4227 0.14645-0.55093 0.59278-0.69738 0.8787-0.69738 0.37659 0 0.73923 0.23014 0.86476 0.63462 0.11158 0.37659 0.11856 0.8787 0.11856 1.4854 0 0.51606 0 1.0321-0.09066 1.4715-0.13948 0.63462-0.6137 0.78804-0.89265 0.78804z"/>
  <path id="l" d="m5.3559-2.3432c0.10461 0 0.26501 0 0.26501-0.17435 0-0.16737-0.16737-0.16737-0.25803-0.16737h-4.6167c-0.09066 0-0.25803 0-0.25803 0.16737 0 0.17435 0.1604 0.17435 0.26501 0.17435h4.6027zm0.006974 1.5342c0.09066 0 0.25803 0 0.25803-0.16737 0-0.17435-0.1604-0.17435-0.26501-0.17435h-4.6027c-0.10461 0-0.26501 0-0.26501 0.17435 0 0.16737 0.16737 0.16737 0.25803 0.16737h4.6167z"/>
  <linearGradient id="j" x1="150.96" x2="112.03" y1="192.35" y2="137.27" gradientTransform="matrix(.56254 0 0 .56797 -9.3997 -5.3053)" gradientUnits="userSpaceOnUse">
   <stop stop-color="#ffd43b" offset="0"/>
   <stop stop-color="#ffe873" offset="1"/>
  </linearGradient>
  <linearGradient id="i" x1="26.649" x2="135.67" y1="20.604" y2="114.4" gradientTransform="matrix(.56254 0 0 .56797 -9.3997 -5.3053)" gradientUnits="userSpaceOnUse">
   <stop stop-color="#5a9fd4" offset="0"/>
   <stop stop-color="#306998" offset="1"/>
  </linearGradient>
  <radialGradient id="b" cx="61.519" cy="132.29" r="29.037" gradientTransform="matrix(2.3827e-8 -.2964 1.4368 4.6837e-7 -128.54 150.52)" gradientUnits="userSpaceOnUse">
   <stop stop-color="#b8b8b8" stop-opacity=".49804" offset="0"/>
   <stop stop-color="#7f7f7f" stop-opacity="0" offset="1"/>
  </radialGradient>
 </defs>
 <metadata>
  <rdf:RDF>
   <cc:Work rdf:about="">
    <dc:format>image/svg+xml</dc:format>
    <dc:type rdf:resource="http://purl.org/dc/dcmitype/StillImage"/>
    <dc:title/>
   </cc:Work>
  </rdf:RDF>
 </metadata>
 <g transform="translate(.24462 5.6478)">
  <text x="21.657509" y="34.964161" fill="#000000" font-family="sans-serif" font-size="9.1722px" stroke-width=".26458" style="line-height:1.25" xml:space="preserve"><tspan x="21.657509" y="34.964161" font-family="HGSSoeiPresenceEB" font-size="9.1722px" stroke-width=".26458">競プロ環境構築</tspan></text>
  <g transform="matrix(.10109 0 0 .10109 26.415 37.831)">
   <g fill="#646464">
    <path d="m184.61 61.929c0-14.562-4.1523-22.038-12.457-22.448-3.3043-0.15595-6.5306 0.37039-9.6691 1.5888-2.505 0.89673-4.1912 1.7837-5.0782 2.6804v34.758c5.3122 3.3335 10.03 4.8833 14.143 4.6396 8.7042-0.57508 13.061-7.6417 13.061-21.219zm10.244 0.60432c0 7.398-1.735 13.539-5.2244 18.422-3.8891 5.5266-9.2792 8.3728-16.17 8.5287-5.1952 0.1657-10.546-1.4621-16.053-4.8736v31.59l-8.9088-3.1776v-70.121c1.4621-1.7935 3.3432-3.3335 5.6241-4.6396 5.3024-3.0898 11.745-4.6786 19.328-4.7566l0.12671 0.12671c6.9302-0.08773 12.272 2.7584 16.024 8.5287 3.4992 5.2927 5.2537 12.077 5.2537 20.371z"/>
    <path d="m249.3 83.266c0 9.9225-0.9942 16.794-2.9826 20.615-1.9982 3.8209-5.7995 6.8717-11.414 9.1428-4.5519 1.7935-9.4742 2.7682-14.757 2.9339l-1.4718-5.6143c5.3706-0.73103 9.1525-1.4621 11.346-2.1931 4.318-1.4621 7.2811-3.7039 8.9088-6.706 1.3061-2.4465 1.9494-7.1154 1.9494-14.026v-2.3198c-6.0919 2.7682-12.476 4.1425-19.153 4.1425-4.3862 0-8.2558-1.3743-11.589-4.1425-3.7429-3.0119-5.6143-6.8327-5.6143-11.463v-37.078l8.9088-3.0508v37.322c0 3.9866 1.2866 7.0569 3.8598 9.211 2.5732 2.1541 5.9067 3.1873 9.9908 3.1093 4.084-0.08773 8.4605-1.6668 13.11-4.7566v-43.54h8.9088z"/>
    <path d="m284.08 88.997c-1.0624 0.08772-2.0371 0.12671-2.9339 0.12671-5.0392 0-8.9673-1.1989-11.774-3.6064-2.7974-2.4075-4.201-5.7313-4.201-9.9713v-35.09h-6.1017v-5.6046h6.1017v-14.884l8.8991-3.1678v18.052h10.01v5.6046h-10.01v34.846c0 3.3432 0.89673 5.7118 2.6902 7.0959 1.54 1.1404 3.9866 1.7935 7.3201 1.9592z"/>
    <path d="m338.02 88.266h-8.9088v-34.388c0-3.4992-0.81876-6.5111-2.4465-9.0258-1.8812-2.8462-4.4934-4.2692-7.8464-4.2692-4.084 0-9.1915 2.1541-15.322 6.4623v41.22h-8.9088v-82.197l8.9088-2.8072v37.439c5.6923-4.1425 11.911-6.2186 18.666-6.2186 4.7176 0 8.5385 1.5888 11.463 4.7566 2.9339 3.1678 4.3959 7.1154 4.3959 11.833z"/>
    <path d="m385.37 60.526c0-5.5948-1.0624-10.215-3.1776-13.87-2.5147-4.4544-6.4233-6.8035-11.706-7.0472-9.7666 0.56534-14.64 7.5638-14.64 20.976 0 6.1504 1.0137 11.287 3.0606 15.41 2.6122 5.2537 6.5306 7.8464 11.755 7.7587 9.8056-0.07798 14.708-7.8172 14.708-23.227zm9.7568 0.05848c0 7.9634-2.0371 14.591-6.1017 19.884-4.4739 5.9262-10.654 8.8991-18.539 8.8991-7.8172 0-13.909-2.9729-18.305-8.8991-3.9866-5.2927-5.975-11.921-5.975-19.884 0-7.4858 2.1541-13.782 6.4623-18.909 4.5519-5.4389 10.537-8.1681 17.935-8.1681 7.398 0 13.422 2.7292 18.061 8.1681 4.3082 5.127 6.4623 11.424 6.4623 18.909z"/>
    <path d="m446.21 88.266h-8.9088v-36.337c0-3.9866-1.1989-7.0959-3.5967-9.3377-2.3978-2.2321-5.5948-3.314-9.5814-3.2263-4.2302 0.07798-8.2558 1.4621-12.077 4.1425v44.759h-8.9088v-45.86c5.127-3.7331 9.8446-6.1699 14.153-7.3103 4.0646-1.0624 7.6515-1.5888 10.741-1.5888 2.1151 0 4.1035 0.20469 5.975 0.61406 3.4992 0.80901 6.3454 2.3101 8.5384 4.5129 2.4465 2.4368 3.6649 5.3609 3.6649 8.7821z"/>
   </g>
   <path d="m60.51 6.398c-4.5837 0.021298-8.9609 0.41222-12.812 1.0938-11.346 2.0045-13.406 6.2001-13.406 13.938v10.219h26.812v3.4062h-36.875c-7.7925 0-14.616 4.6837-16.75 13.594-2.4618 10.213-2.571 16.586 0 27.25 1.9059 7.9379 6.4575 13.594 14.25 13.594h9.2188v-12.25c0-8.8499 7.6571-16.656 16.75-16.656h26.781c7.455 0 13.406-6.1382 13.406-13.625v-25.531c0-7.2663-6.13-12.725-13.406-13.938-4.606-0.76673-9.3851-1.115-13.969-1.0938zm-14.5 8.2188c2.7695 0 5.0312 2.2986 5.0312 5.125-2e-6 2.8163-2.2617 5.0938-5.0312 5.0938-2.7795-1e-6 -5.0312-2.2774-5.0312-5.0938-1e-6 -2.8264 2.2518-5.125 5.0312-5.125z" fill="url(#i)"/>
   <path d="m91.229 35.054v11.906c0 9.2308-7.8259 17-16.75 17h-26.781c-7.3358 0-13.406 6.2785-13.406 13.625v25.531c0 7.2663 6.3186 11.54 13.406 13.625 8.4873 2.4956 16.626 2.9466 26.781 0 6.7502-1.9544 13.406-5.8876 13.406-13.625v-10.219h-26.781v-3.4062h40.188c7.7925 0 10.696-5.4354 13.406-13.594 2.7993-8.3989 2.6802-16.476 0-27.25-1.9258-7.7574-5.6039-13.594-13.406-13.594zm-15.062 64.656c2.7795 3e-6 5.0312 2.2774 5.0312 5.0937-2e-6 2.8264-2.2518 5.125-5.0312 5.125-2.7696 0-5.0312-2.2986-5.0312-5.125 2e-6 -2.8163 2.2617-5.0937 5.0312-5.0937z" fill="url(#j)"/>
   <path d="m463.55 26.909h1.562v-9.7962h3.7001v-1.1677h-8.9622v1.1677h3.7001v9.7962m6.647 0h1.3345v-8.947l2.8964 8.9459h1.4857l3.0182-8.9156v8.9167h1.4558v-10.964h-1.9259l-3.2983 9.3929-2.813-9.3929h-2.1534v10.964" fill="#646464"/>
   <path transform="matrix(.73406 0 0 .80952 16.25 27.009)" d="m110.47 132.29a48.948 8.6067 0 1 1-97.897 0 48.948 8.6067 0 1 1 97.897 0z" fill="url(#b)" opacity=".44382"/>
  </g>
 </g>
 <g>
  <g transform="matrix(1.1706 0 0 1.1706 -2.3589 1.2494)">
   <g>
    <text x="23.532953" y="23.085289" font-family="sans-serif" font-size="2.8222px" stroke-width=".26458" style="line-height:1.25" xml:space="preserve"><tspan x="23.532953" y="23.085289" font-family="Cambria" font-size="2.8222px" stroke-width=".26458">3</tspan></text>
    <path d="m24.419 19.009-4.3472 5.0899" fill="none" marker-end="url(#h)" stroke="#000" stroke-miterlimit="3" stroke-width=".28222"/>
    <text x="30.056179" y="15.746658" font-family="sans-serif" font-size="2.8222px" stroke-width=".26458" style="line-height:1.25" xml:space="preserve"><tspan x="30.056179" y="15.746658" font-family="Cambria" font-size="2.8222px" stroke-width=".26458">2</tspan></text>
    <path d="m28.079 15.264 4.3058-3.8531" fill="none" marker-end="url(#c)" stroke="#000" stroke-miterlimit="3" stroke-width=".28222"/>
    <text x="40.167179" y="8.73419" font-family="sans-serif" font-size="2.8222px" stroke-width=".26458" style="line-height:1.25" xml:space="preserve"><tspan x="40.167179" y="8.73419" font-family="Cambria" font-size="2.8222px" stroke-width=".26458">4</tspan></text>
    <path d="m36.964 9.661 8.8328-0.7349" fill="none" marker-end="url(#d)" stroke="#000" stroke-miterlimit="3" stroke-width=".28222"/>
    <text x="19.782099" y="12.077344" font-family="sans-serif" font-size="2.8222px" stroke-width=".26458" style="line-height:1.25" xml:space="preserve"><tspan x="19.782099" y="12.077344" font-family="Cambria" font-size="2.8222px" stroke-width=".26458">1</tspan></text>
    <path d="m17.767 11.193 6.2032 4.3208" fill="none" marker-end="url(#e)" stroke="#000" stroke-miterlimit="3" stroke-width=".28222"/>
    <text x="15.705082" y="18.519032" font-family="sans-serif" font-size="2.8222px" stroke-width=".26458" style="line-height:1.25" xml:space="preserve"><tspan x="15.705082" y="18.519032" font-family="Cambria" font-size="2.8222px" stroke-width=".26458">5</tspan></text>
    <path d="m9.8592 17.857 21.993-7.3627" fill="none" marker-end="url(#f)" stroke="#000" stroke-miterlimit="3" stroke-width=".28222"/>
    <text x="9.5080175" y="13.952771" font-family="sans-serif" font-size="2.8222px" stroke-width=".26458" style="line-height:1.25" xml:space="preserve"><tspan x="9.5080175" y="13.952771" font-family="Cambria" font-size="2.8222px" stroke-width=".26458">1</tspan></text>
    <path d="m9.1436 16.755 4.6973-5.1267" fill="none" marker-end="url(#g)" stroke="#000" stroke-miterlimit="3" stroke-width=".28222"/>
   </g>
   <circle cx="7.3708" cy="18.69" r="2.6242" fill="#fff" stroke="#000" stroke-width=".35278"/>
   <text x="7.3721938" y="19.630377" font-family="sans-serif" font-size="2.8222px" stroke-width=".26458" style="line-height:1.25" xml:space="preserve"><tspan x="7.3721938" y="19.630377" font-family="Cambria" font-size="2.8222px" stroke-width=".26458" text-align="center" text-anchor="middle">0</tspan></text>
   <circle cx="15.614" cy="9.6935" r="2.6242" fill="#fff" stroke="#000" stroke-width=".35278"/>
   <text x="14.819884" y="10.645037" font-family="Cambria" font-size="2.8222px" stroke-width=".26458" style="line-height:1.25" xml:space="preserve"><tspan x="14.819884" y="10.645037" font-family="Cambria" stroke-width=".26458">1</tspan></text>
   <circle cx="34.34" cy="9.661" r="2.6242" fill="#ff8080" stroke="#000" stroke-width=".35278"/>
   <text x="33.560955" y="10.635986" font-family="Cambria" font-size="2.8222px" stroke-width=".26458" style="line-height:1.25" xml:space="preserve"><tspan x="33.560955" y="10.635986" font-family="Cambria" stroke-width=".26458">5</tspan></text>
   <circle cx="26.123" cy="17.014" r="2.6242" fill="#ff8080" stroke="#000" stroke-width=".35278"/>
   <text x="25.366852" y="17.965548" font-family="Cambria" font-size="2.8222px" stroke-width=".26458" style="line-height:1.25" xml:space="preserve"><tspan x="25.366852" y="17.965548" font-family="Cambria" stroke-width=".26458">2</tspan></text>
   <circle cx="48.416" cy="8.7581" r="2.6242" fill="#fff" stroke="#000" stroke-width=".35278"/>
   <text x="47.222656" y="9.5636034" font-family="Cambria" font-size="2.8222px" stroke-width=".26458" style="line-height:1.25" xml:space="preserve"><tspan x="47.222656" y="9.5636034" font-family="Cambria" stroke-width=".26458">∞</tspan></text>
   <circle cx="18.368" cy="26.095" r="2.6242" fill="#fff" stroke="#000" stroke-width=".35278"/>
   <text x="17.174356" y="26.900284" font-family="Cambria" font-size="2.8222px" stroke-width=".26458" style="line-height:1.25" xml:space="preserve"><tspan x="17.174356" y="26.900284" font-family="Cambria" stroke-width=".26458">∞</tspan></text>
  </g>
 </g>
 <g transform="matrix(.55329 0 0 .55329 89.503 54.538)">
  <use x="-72.000008" y="-55.547768" width="100%" height="100%" xlink:href="#s"/>
  <use x="-60.141781" y="-55.547768" width="100%" height="100%" xlink:href="#n"/>
  <use x="-46.401676" y="-68.001114" width="100%" height="100%" xlink:href="#t"/>
  <use x="-49.625702" y="-65.012337" width="100%" height="100%" xlink:href="#k"/>
  <use x="-48.883415" y="-43.793201" width="100%" height="100%" xlink:href="#a"/>
  <use x="-46.064686" y="-43.793201" width="100%" height="100%" xlink:href="#l"/>
  <use x="-39.948704" y="-43.793201" width="100%" height="100%" xlink:href="#m"/>
  <use x="-33.574795" y="-55.547768" width="100%" height="100%" xlink:href="#r"/>
  <use x="-28.30864" y="-54.053387" width="100%" height="100%" xlink:href="#a"/>
  <use x="-24.991793" y="-55.547768" width="100%" height="100%" xlink:href="#q"/>
  <use x="-21.117418" y="-55.547768" width="100%" height="100%" xlink:href="#u"/>
  <use x="-13.368672" y="-55.547768" width="100%" height="100%" xlink:href="#o"/>
  <use x="-8.3873329" y="-55.547768" width="100%" height="100%" xlink:href="#p"/>
  <use x="-4.512959" y="-59.661266" width="100%" height="100%" xlink:href="#a"/>
 </g>
</svg>
