<svg width="256" height="256" viewBox="0 0 800 800" xmlns="http://www.w3.org/2000/svg"><defs><linearGradient id="a" x1="106.44" x2="225.07" y1="233.24" y2="47.853" gradientTransform="matrix(3.3777 0 0 3.238 -63.626 -18.149)" gradientUnits="userSpaceOnUse"><stop stop-color="#ff8e46" offset="0"/><stop stop-color="#dc8380" offset=".556"/><stop stop-color="#f6e5e3" offset=".611"/><stop stop-color="#ff715a" offset=".677"/><stop stop-color="#9fa088" offset="1"/></linearGradient></defs><g fill="none" stroke-width="6.25"><path d="M148.96 36.093S4.82 150.363 18.31 339.273c13.497 188.92 94.459 227.47 169.64 289.16 75.182 61.686 181.81 117.42 181.81 117.42L40.55 772.819c134.24-132.52 344.32-325.1 314.15-483.66-33.18-126.47-108.33-210.13-205.74-253.06z" stroke="#000"/><ellipse cx="201.51" cy="168.11" rx="15.105" ry="14.48" stroke="#000"/><path d="M473.43 27.182v161.9H338.32c2.668 8.516 4.83 16.805 14.22 20.723 6.823 2.85 31.177 1.943 39.824 1.943h81.066v145.71H307.92c4.763 23.734 10.843 22.633 33.777 22.666h131.73v132.76h-118.22l3.378 22.666h114.84v171.61h-172.26c1.385 6.929 2.466 14.927 8.95 19.46 5.371 3.723 15.032 3.173 21.45 3.076h435.66c18.848-3.27 17.767-16.093 9.322-29.012-9.288-14.247-36.412-39.212-49.788-51.807-7.228-6.767-18.07-19.816-29.386-13.794-11.113 5.925-46.039 61.262-59.448 68.774-10.336 5.764-61.813 3.303-76.675 3.303V535.39h172.2c38.641-6.314-13.443-53.297-23.306-64.597-5.776-6.606-17.328-22.018-26.988-22.018-8.005 0-14.423 10.102-18.61 15.542-6.553 8.548-27.597 38.435-34.082 43.389-10.944 8.354-53.84 5.18-69.21 5.18v-97.139c23.982-4.403 36.108-13.308 20.266-35.779h178.95c16.044-2.784 18.476-12.952 11.383-25.742-7.566-13.599-29.859-34.03-41.715-45.33-5.91-5.602-18.037-18.78-26.718-18.78-8.005 0-14.896 10.07-19.152 15.541-6.721 8.71-30.433 41.673-36.919 46.627-7.667 5.829-16.078 5.116-25.299 5.181h-60.799v-145.71h162.13c9.12-.065 24.387.971 27.157-10.2 3.48-14.182-30.535-41.64-40.668-51.322-12.835-12.304-20.435-21.565-37.155-29.142-9.153 13.178-38.912 61.1-51.274 66.054-7.971 3.206-48.876 1.943-59.65 1.943V92.273c4.796-14.927 34.25-23.864 25.535-41.705-4.83-9.844-19.49-12.207-29.454-13.664z" stroke="url(#a)"/></g></svg>