<svg width="256" height="256" viewBox="0 0 800 800" xmlns="http://www.w3.org/2000/svg"><style>@media (prefers-color-scheme:dark){path{fill:#eba}}</style><path d="M473.438 27.185v161.897H338.33c2.668 8.516 4.831 16.81 14.221 20.727 6.825 2.85 31.18 1.941 39.825 1.941h81.06v145.71H354.118c4.317-23.262 4.81-46.125.586-68.303-33.172-126.47-108.331-210.125-205.737-253.06 0 0-144.154 114.266-130.66 303.181 13.36 187.029 92.844 226.72 167.381 287.347C136.57 679.594 84.51 729.441 40.56 772.828l329.22-26.965s-11.803-6.25-29.34-16.168h426.78c18.849-3.27 17.765-16.09 9.32-29.01-9.288-14.247-36.409-39.21-49.787-51.806-7.228-6.767-18.067-19.816-29.382-13.794-11.113 5.926-46.038 61.262-59.447 68.775-10.335 5.764-61.81 3.302-76.672 3.302V535.39h172.194c38.64-6.314-13.44-53.303-23.303-64.6-5.776-6.605-17.33-22.016-26.99-22.016-8.005 0-14.421 10.1-18.61 15.54-6.553 8.548-27.59 38.434-34.075 43.39-10.944 8.355-53.84 5.183-69.206 5.183v-97.144c23.982-4.404 36.113-13.309 20.27-35.778h178.95c16.045-2.785 18.476-12.949 11.383-25.739-7.566-13.6-29.854-34.031-41.712-45.331-5.91-5.602-18.04-18.78-26.722-18.78-8.005 0-14.897 10.066-19.153 15.539-6.725 8.71-30.433 41.681-36.912 46.631-7.667 5.83-16.077 5.117-25.3 5.182H561.27V211.745h162.128c9.12-.065 24.385.973 27.155-10.199 3.475-14.175-30.533-41.637-40.67-51.319-12.833-12.305-20.436-21.56-37.159-29.138-9.153 13.18-38.906 61.097-51.268 66.053-7.97 3.205-48.882 1.941-59.657 1.941V92.274c4.796-14.927 34.257-23.863 25.538-41.706-4.83-9.843-19.485-12.209-29.45-13.666l-84.453-9.717zM202.409 150.36a30.843 30.843 0 0 1 30.841 30.847 30.843 30.843 0 0 1-30.84 30.841 30.843 30.843 0 0 1-30.848-30.84 30.843 30.843 0 0 1 30.847-30.848zm105.52 207.097h46.184a246.697 246.697 0 0 1-5.36 22.662h-7.043c-22.935-.033-29.018 1.073-33.784-22.662zm40.824 22.668h124.681v132.757H355.216l3.375 22.662h114.844v171.613H301.919a1471.253 1471.253 0 0 0 38.494 22.534h-8.844c-6.417.097-16.083.647-21.454-3.077-6.485-4.533-7.558-12.529-8.942-19.458h.733c-35.181-21.312-78.097-49.3-113.953-78.715-.753-.615-1.507-1.204-2.259-1.82 73.125-78.85 139.685-164.634 163.057-246.496z" fill="#e73"/></svg>